<svg width="42" height="41" viewBox="0 0 42 41" fill="none" xmlns="http://www.w3.org/2000/svg">
<g opacity="0.8">
<circle cx="20.75" cy="20.5" r="20.5" fill="#719A16"/>
<path d="M25.4935 27.0467H25.5133L26.4917 27.0405C26.6004 27.0391 26.7068 27.0115 26.8011 26.9603C26.8953 26.909 26.9743 26.8358 27.0304 26.7476C27.0866 26.6593 27.1181 26.5589 27.1221 26.4559C27.126 26.3529 27.1022 26.2506 27.0529 26.1587C26.909 25.8846 26.6565 25.8106 26.3523 25.8106H14.962C14.8757 25.8147 14.7892 25.8147 14.7028 25.8106C14.598 25.802 14.4969 25.7692 14.4085 25.715C14.3201 25.6608 14.2471 25.5868 14.1958 25.4996C14.1445 25.4123 14.1166 25.3145 14.1144 25.2146C14.1123 25.1147 14.1359 25.0159 14.1834 24.9267C14.3283 24.6547 14.5798 24.5796 14.884 24.5796H26.3215C26.8135 24.5796 27.0068 24.442 27.143 23.9897C27.4534 22.9578 27.7656 21.9235 28.0797 20.8867C26.567 20.6632 25.1881 19.9342 24.1914 18.8312C23.1948 17.7282 22.6459 16.3236 22.6437 14.8705C22.6437 14.8226 22.6437 14.7757 22.6437 14.7288H13.2631C13.1138 14.0951 12.971 13.478 12.8238 12.8704C12.714 12.4253 12.5043 12.2658 12.02 12.2658C10.8307 12.2658 9.64133 12.2762 8.45201 12.2596C8.2677 12.2512 8.08415 12.287 7.91829 12.3638C7.80912 12.4143 7.71806 12.4942 7.65653 12.5936C7.59499 12.693 7.56572 12.8074 7.57237 12.9225C7.58369 13.0253 7.62172 13.1239 7.68305 13.2094C7.74438 13.2949 7.8271 13.3646 7.92378 13.4124C8.08965 13.4808 8.27051 13.5101 8.45091 13.4978H11.6455L13.9835 23.4935C13.9055 23.5321 13.8517 23.5602 13.7957 23.5905C13.4383 23.7836 13.1546 24.0794 12.9855 24.4352C12.8163 24.7911 12.7705 25.1887 12.8546 25.5708C12.9322 25.943 13.1314 26.2824 13.424 26.5408C13.7166 26.7993 14.0876 26.9635 14.4843 27.0103C14.5743 27.0186 15.1355 27.0301 15.9602 27.0301C15.4534 27.0642 14.9802 27.2838 14.6405 27.6424C14.3008 28.0011 14.121 28.4709 14.139 28.9529C14.1571 29.4349 14.3714 29.8915 14.7371 30.2264C15.1027 30.5613 15.591 30.7485 16.0992 30.7485C16.6073 30.7485 17.0956 30.5613 17.4612 30.2264C17.8269 29.8915 18.0413 29.4349 18.0593 28.9529C18.0773 28.4709 17.8975 28.0011 17.5578 27.6424C17.2181 27.2838 16.7449 27.0642 16.2381 27.0301C18.7562 27.0467 23.2532 27.0467 24.8928 27.0467C24.4042 27.1186 23.9622 27.3628 23.6551 27.7305C23.3481 28.0983 23.1985 28.5625 23.2365 29.0304C23.2744 29.4982 23.497 29.9352 23.8598 30.2541C24.2226 30.5729 24.6987 30.75 25.1931 30.75C25.6875 30.75 26.1637 30.5729 26.5265 30.2541C26.8892 29.9352 27.1119 29.4982 27.1498 29.0304C27.1877 28.5625 27.0382 28.0983 26.7312 27.7305C26.4241 27.3628 25.9821 27.1186 25.4935 27.0467Z" fill="white"/>
<path d="M28.877 10.25C27.8779 10.25 26.9012 10.5312 26.0705 11.058C25.2397 11.5849 24.5922 12.3337 24.2099 13.2098C23.8276 14.0859 23.7275 15.0499 23.9224 15.98C24.1173 16.91 24.5985 17.7644 25.3049 18.4349C26.0114 19.1054 26.9115 19.5621 27.8915 19.7471C28.8714 19.9321 29.8871 19.8371 30.8101 19.4742C31.7332 19.1113 32.5222 18.4968 33.0772 17.7083C33.6323 16.9199 33.9286 15.9929 33.9286 15.0446C33.9286 13.773 33.3964 12.5535 32.449 11.6543C31.5016 10.7551 30.2167 10.25 28.877 10.25ZM32.0024 15.0853C32.0024 15.2367 31.9394 15.382 31.8271 15.4895C31.7148 15.5971 31.5623 15.6582 31.4028 15.6596H29.5359V17.4315C29.5359 17.5835 29.4722 17.7293 29.359 17.8368C29.2457 17.9444 29.0921 18.0048 28.9319 18.0048H28.8341C28.7549 18.0046 28.6764 17.9896 28.6033 17.9607C28.5301 17.9317 28.4637 17.8894 28.4078 17.836C28.3519 17.7827 28.3076 17.7194 28.2775 17.6498C28.2474 17.5802 28.2321 17.5057 28.2323 17.4304V15.6585H26.3654C26.205 15.6585 26.0511 15.598 25.9376 15.4903C25.8241 15.3826 25.7604 15.2365 25.7604 15.0842V14.9935C25.7604 14.9182 25.776 14.8435 25.8064 14.7739C25.8369 14.7043 25.8814 14.641 25.9376 14.5878C25.9939 14.5346 26.0606 14.4923 26.134 14.4636C26.2074 14.4349 26.286 14.4201 26.3654 14.4203H28.2323V12.6473C28.2323 12.4955 28.2959 12.35 28.4089 12.2427C28.522 12.1354 28.6753 12.0751 28.8352 12.0751H28.9341C29.0133 12.0752 29.0916 12.0901 29.1647 12.119C29.2378 12.1479 29.3042 12.1902 29.3601 12.2434C29.416 12.2966 29.4602 12.3598 29.4904 12.4293C29.5206 12.4988 29.536 12.5732 29.5359 12.6483V14.4255H31.4028C31.5624 14.4252 31.7157 14.4849 31.829 14.5915C31.9424 14.6982 32.0067 14.8431 32.0079 14.9946L32.0024 15.0853Z" fill="white"/>
</g>
</svg>
