<svg width="41" height="42" viewBox="0 0 41 42" fill="none" xmlns="http://www.w3.org/2000/svg">
<g opacity="0.8">
<circle cx="20.5" cy="21" r="20.5" fill="#007740"/>
<path d="M28.4871 15.875H25.0926V15.465C25.0926 12.8615 23.0359 10.75 20.5001 10.75C17.9642 10.75 15.9075 12.8615 15.9075 15.465V15.875H12.5131C12.0713 15.875 11.7144 16.2414 11.7144 16.695V30.43C11.7144 30.8836 12.0713 31.25 12.5131 31.25H28.4871C28.9289 31.25 29.2858 30.8836 29.2858 30.43V16.695C29.2858 16.2414 28.9289 15.875 28.4871 15.875ZM23.2955 15.875H17.7046V15.465C17.7046 13.8788 18.9551 12.595 20.5001 12.595C22.0451 12.595 23.2955 13.8788 23.2955 15.465V15.875Z" fill="white"/>
</g>
</svg>
