<svg width="12" height="12" viewBox="0 0 12 12" fill="none" xmlns="http://www.w3.org/2000/svg">
<path d="M10.6751 2.99976H8.6881V2.75976C8.6881 1.23576 7.48421 -0.000244141 5.99979 -0.000244141C4.51538 -0.000244141 3.31148 1.23576 3.31148 2.75976V2.99976H1.32447C1.06586 2.99976 0.856934 3.21426 0.856934 3.47976V11.5198C0.856934 11.7853 1.06586 11.9998 1.32447 11.9998H10.6751C10.9337 11.9998 11.1426 11.7853 11.1426 11.5198V3.47976C11.1426 3.21426 10.9337 2.99976 10.6751 2.99976ZM7.63615 2.99976H4.36343V2.75976C4.36343 1.83126 5.09541 1.07976 5.99979 1.07976C6.90417 1.07976 7.63615 1.83126 7.63615 2.75976V2.99976Z" fill="white"/>
</svg>
