<svg width="18" height="17" viewBox="0 0 18 17" fill="none" xmlns="http://www.w3.org/2000/svg">
<path d="M7.13233 2.19219C7.38023 1.84611 7.29416 1.36911 6.94011 1.12673C6.58607 0.884399 6.09808 0.968537 5.85017 1.31462L4.05463 3.82123C3.80672 4.1673 3.89279 4.64431 4.24683 4.88664C4.60089 5.12897 5.08887 5.04488 5.33677 4.6988L7.13233 2.19219Z" fill="white"/>
<path d="M10.7908 2.19219C10.543 1.84611 10.629 1.36911 10.9831 1.12673C11.3371 0.884399 11.8251 0.968537 12.073 1.31462L13.8685 3.82123C14.1165 4.1673 14.0304 4.64431 13.6763 4.88664C13.3223 5.12897 12.8343 5.04488 12.5864 4.6988L10.7908 2.19219Z" fill="white"/>
<path fill-rule="evenodd" clip-rule="evenodd" d="M1.56522 6.06669C0.700737 6.06669 0 6.7517 0 7.59668C0 8.3971 0.628705 9.05393 1.42975 9.12102L3.06031 14.8892C3.24775 15.5524 3.86508 16.0117 4.56897 16.0117H13.4311C14.1349 16.0117 14.7523 15.5524 14.9397 14.8892L16.5703 9.12102C17.3713 9.05393 18 8.3971 18 7.59668C18 6.7517 17.2992 6.06669 16.4348 6.06669H1.56522ZM5.86957 9.12668C5.43737 9.12668 5.08696 9.46917 5.08696 9.89168V13.7167C5.08696 14.1392 5.43737 14.4817 5.86957 14.4817C6.30176 14.4817 6.65217 14.1392 6.65217 13.7167V9.89168C6.65217 9.46917 6.30176 9.12668 5.86957 9.12668ZM9 9.12668C8.56784 9.12668 8.21739 9.46917 8.21739 9.89168V13.7167C8.21739 14.1392 8.56784 14.4817 9 14.4817C9.43216 14.4817 9.78261 14.1392 9.78261 13.7167V9.89168C9.78261 9.46917 9.43216 9.12668 9 9.12668ZM12.1304 9.12668C11.6983 9.12668 11.3478 9.46917 11.3478 9.89168V13.7167C11.3478 14.1392 11.6983 14.4817 12.1304 14.4817C12.5626 14.4817 12.913 14.1392 12.913 13.7167V9.89168C12.913 9.46917 12.5626 9.12668 12.1304 9.12668Z" fill="white"/>
</svg>
