<svg width="16" height="16" viewBox="0 0 16 16" fill="none" xmlns="http://www.w3.org/2000/svg">
<path d="M13.6372 2.36284C12.8982 1.61656 12.0191 1.02365 11.0503 0.618165C10.0815 0.212679 9.0421 0.00260903 7.99187 2.4149e-05C6.94164 -0.00256073 5.90125 0.20239 4.93047 0.603103C3.95969 1.00381 3.07765 1.59239 2.33502 2.33502C1.59239 3.07765 1.00381 3.95969 0.603103 4.93047C0.20239 5.90125 -0.00256073 6.94164 2.4149e-05 7.99187C0.00260903 9.0421 0.212679 10.0815 0.618165 11.0503C1.02365 12.0191 1.61656 12.8982 2.36284 13.6372C3.1018 14.3834 3.98093 14.9763 4.94973 15.3818C5.91853 15.7873 6.9579 15.9974 8.00813 16C9.05836 16.0026 10.0987 15.7976 11.0695 15.3969C12.0403 14.9962 12.9224 14.4076 13.665 13.665C14.4076 12.9224 14.9962 12.0403 15.3969 11.0695C15.7976 10.0987 16.0026 9.05836 16 8.00813C15.9974 6.9579 15.7873 5.91853 15.3818 4.94973C14.9763 3.98093 14.3834 3.1018 13.6372 2.36284ZM1.16664 8C1.16639 7.39522 1.24657 6.79309 1.4051 6.20945C1.66633 6.77178 2.04573 7.25758 2.30376 7.8345C2.63724 8.57621 3.53269 8.3705 3.9281 9.02038C4.27902 9.5973 3.90426 10.3269 4.16691 10.9305C4.35768 11.3686 4.80754 11.4644 5.11789 11.7847C5.435 12.1078 5.42824 12.5506 5.47664 12.972C5.53126 13.4671 5.61985 13.9578 5.74179 14.4408C5.74179 14.4444 5.74179 14.4483 5.74464 14.4518C3.08141 13.5165 1.16664 10.9778 1.16664 8ZM8 14.8334C7.61838 14.8332 7.23743 14.8013 6.86111 14.738C6.86502 14.6415 6.8668 14.5515 6.87641 14.4888C6.9629 13.923 7.2462 13.3695 7.62844 12.946C8.00605 12.5282 8.52354 12.2456 8.84243 11.7715C9.15491 11.3088 9.24851 10.686 9.11967 10.1454C8.92998 9.34674 7.84483 9.08017 7.25972 8.64703C6.92339 8.3979 6.62407 8.01281 6.1824 7.98149C5.97882 7.96726 5.80834 8.01103 5.60655 7.95907C5.42148 7.91102 5.27627 7.81137 5.0791 7.83735C4.71073 7.88575 4.47833 8.27938 4.08256 8.226C3.70709 8.17582 3.32022 7.73628 3.2348 7.37859C3.12518 6.91876 3.48892 6.76964 3.87863 6.72871C4.04128 6.71163 4.22386 6.69312 4.3801 6.75291C4.58581 6.82908 4.68297 7.03052 4.86769 7.13231C5.21398 7.32236 5.2841 7.01877 5.23107 6.71127C5.1517 6.25073 5.05917 6.06317 5.46988 5.74606C5.7546 5.52753 5.99804 5.36951 5.95248 4.97695C5.92544 4.74633 5.79909 4.64205 5.91689 4.41249C6.00623 4.23774 6.25144 4.08007 6.41124 3.97579C6.82374 3.70673 8.17831 3.72666 7.62488 2.97357C7.46223 2.75255 7.1622 2.3575 6.87748 2.3034C6.52157 2.23613 6.36355 2.63332 6.11549 2.80843C5.85924 2.98958 5.36026 3.1953 5.10365 2.9152C4.75843 2.5383 5.3325 2.4148 5.45956 2.15143C5.51828 2.02864 5.45956 1.85816 5.36062 1.69765C5.48898 1.64355 5.61948 1.59337 5.75211 1.5471C5.83523 1.6085 5.93384 1.64547 6.03683 1.65387C6.27493 1.66953 6.49951 1.5407 6.70736 1.70299C6.93798 1.88094 7.10419 2.10587 7.41027 2.16139C7.70638 2.21514 8.01993 2.04252 8.09325 1.73929C8.13773 1.55493 8.09325 1.36025 8.05054 1.16985C9.38163 1.1775 10.6811 1.57614 11.7875 2.31621C11.7164 2.28916 11.6313 2.29237 11.5263 2.34113C11.3103 2.44149 11.0042 2.69703 10.9789 2.95043C10.9501 3.238 11.3743 3.27858 11.5758 3.27858C11.8783 3.27858 12.1847 3.14333 12.0872 2.79384C12.0449 2.64222 11.9872 2.48456 11.8943 2.38917C12.1176 2.54412 12.3315 2.71216 12.5349 2.89242C12.5317 2.89562 12.5285 2.89847 12.5253 2.90203C12.3203 3.11557 12.0822 3.28463 11.942 3.54444C11.8431 3.72737 11.7317 3.81421 11.5313 3.86155C11.421 3.88753 11.295 3.89714 11.2024 3.97117C10.9448 4.17403 11.0914 4.66162 11.3355 4.8079C11.6441 4.99261 12.1018 4.90577 12.3346 4.64205C12.5164 4.43562 12.6236 4.07723 12.9506 4.07758C13.0946 4.07728 13.233 4.13366 13.3357 4.23454C13.471 4.37476 13.4443 4.50573 13.4731 4.68084C13.524 4.9919 13.7984 4.8232 13.9653 4.66625C14.087 4.88279 14.1968 5.10579 14.2942 5.33428C14.1105 5.59872 13.9646 5.887 13.5229 5.57878C13.2585 5.39407 13.0958 5.12607 12.7638 5.04279C12.4737 4.97161 12.1765 5.04564 11.89 5.09511C11.5644 5.1517 11.1782 5.17661 10.9312 5.42325C10.6924 5.661 10.5661 5.97918 10.312 6.21799C9.82045 6.68066 9.61296 7.18569 9.93114 7.83984C10.2372 8.46873 10.8775 8.81004 11.5683 8.76519C12.247 8.71999 12.952 8.32636 12.9325 9.31258C12.9254 9.66172 12.9983 9.90338 13.1054 10.2276C13.2047 10.5266 13.198 10.8163 13.2208 11.1248C13.2424 11.4862 13.2989 11.8446 13.3895 12.195C12.7515 13.0164 11.9343 13.6811 11.0003 14.1383C10.0662 14.5956 9.03998 14.8333 8 14.8334Z" fill="white"/>
</svg>
