<svg width="17" height="16" viewBox="0 0 17 16" fill="none" xmlns="http://www.w3.org/2000/svg">
<path fill-rule="evenodd" clip-rule="evenodd" d="M14.0002 0H16.0002C16.5502 0 17.0002 0.45 17.0002 1V15C17.0002 15.55 16.5502 16 16.0002 16H14.0002C13.4502 16 13.0002 15.55 13.0002 15C13.0002 14.45 13.4502 14 14.0002 14H15.0002V2H14.0002C13.4502 2 13.0002 1.55 13.0002 1C13.0002 0.45 13.4502 0 14.0002 0ZM7.40004 3.2004C7.84404 2.8694 8.46904 2.9594 8.80004 3.4004L11.8 7.4004C12.06 7.7464 12.068 8.2204 11.818 8.5754L9.00404 12.5754C8.80904 12.8524 8.50004 13.0004 8.18504 13.0004C7.98704 13.0004 7.78604 12.9414 7.61104 12.8184C7.15904 12.5004 7.05004 11.8764 7.36804 11.4244L9.08604 8.9824C9.07254 8.9837 9.05984 8.9875 9.04724 8.9913C9.03184 8.9958 9.01654 9.0004 9.00004 9.0004H1C0.448 9.0004 0 8.5524 0 8.0004C0 7.4474 0.448 7.0004 1 7.0004H9.00104L7.20004 4.5994C6.869 4.1584 6.958 3.5314 7.40004 3.2004Z" fill="white"/>
</svg>
