<svg width="13" height="15" viewBox="0 0 13 15" fill="none" xmlns="http://www.w3.org/2000/svg">
<path d="M1.5 1C1.5 0.723858 1.27614 0.5 1 0.5C0.723858 0.5 0.5 0.723858 0.5 1H1.5ZM12.3536 10.8536C12.5488 10.6583 12.5488 10.3417 12.3536 10.1464L9.17157 6.96447C8.97631 6.7692 8.65973 6.7692 8.46447 6.96447C8.2692 7.15973 8.2692 7.47631 8.46447 7.67157L11.2929 10.5L8.46447 13.3284C8.2692 13.5237 8.2692 13.8403 8.46447 14.0355C8.65973 14.2308 8.97631 14.2308 9.17157 14.0355L12.3536 10.8536ZM0.5 1V5.5H1.5V1H0.5ZM6 11H12V10H6V11ZM0.5 5.5C0.5 8.53757 2.96243 11 6 11V10C3.51472 10 1.5 7.98528 1.5 5.5H0.5Z" fill="#007740"/>
</svg>
