<svg width="20" height="20" viewBox="0 0 20 20" fill="none" xmlns="http://www.w3.org/2000/svg">
<path d="M10 1L12.6198 6.81653L19 7.49342L14.239 11.7651L15.5623 18L10 14.8235L4.43769 18L5.761 11.7651L1 7.49342L7.38015 6.81653L10 1Z" fill="#FFD52E"/>
<path fill-rule="evenodd" clip-rule="evenodd" d="M10 0L12.9109 6.50806L20 7.26543L14.71 12.045L16.1803 19.0211L10 15.467L3.81966 19.0211L5.29 12.045L0 7.26543L7.08906 6.50806L10 0ZM10 2.29426L7.72422 7.38228L2.18197 7.97439L6.31771 11.7111L5.16819 17.165L10 14.3864L14.8318 17.165L13.6823 11.7111L17.818 7.97439L12.2758 7.38228L10 2.29426Z" fill="#FFA142"/>
</svg>
