<svg width="15" height="14" viewBox="0 0 15 14" fill="none" xmlns="http://www.w3.org/2000/svg">
<path fill-rule="evenodd" clip-rule="evenodd" d="M14.0037 7C14.0037 10.866 10.8688 14 7.00183 14C3.13483 14 0 10.866 0 7C0 3.13403 3.13483 0 7.00183 0C10.8688 0 14.0037 3.13403 14.0037 7ZM9.39911 4.65814C9.55993 4.47913 9.74261 4.38782 9.98016 4.44623C10.3785 4.54486 10.521 5.01984 10.2469 5.33405C9.95092 5.67383 9.64398 6.00629 9.34063 6.33875C8.42706 7.33978 7.52075 8.34082 6.61078 9.34552C6.48657 9.48071 6.34771 9.57935 6.15399 9.57568C6.00415 9.57568 5.86529 9.51721 5.763 9.40759C5.0979 8.73541 4.43646 8.06317 3.77862 7.39093C3.55206 7.16077 3.55206 6.83923 3.77136 6.62006C3.9906 6.40082 4.32318 6.40448 4.5534 6.63831C5.05035 7.13519 5.54736 7.63934 6.03705 8.14716C6.12842 8.24219 6.16498 8.22388 6.2417 8.13989C7.29419 6.98175 8.34661 5.81995 9.39911 4.65814Z" fill="#007740"/>
</svg>
