<svg width="9" height="9" viewBox="0 0 9 9" fill="none" xmlns="http://www.w3.org/2000/svg">
<path fill-rule="evenodd" clip-rule="evenodd" d="M8.00209 4.5C8.00209 6.70912 6.21076 8.5 4.00104 8.5C1.79133 8.5 0 6.70912 0 4.5C0 2.29088 1.79133 0.5 4.00104 0.5C6.21076 0.5 8.00209 2.29088 8.00209 4.5ZM5.37092 3.1618C5.46282 3.0595 5.56721 3.00732 5.70295 3.0407C5.93056 3.09706 6.01199 3.36848 5.8554 3.54803C5.68624 3.74219 5.51084 3.93216 5.3375 4.12214C4.81546 4.69416 4.29757 5.26618 3.77759 5.8403C3.70661 5.91755 3.62727 5.97391 3.51657 5.97182C3.43094 5.97182 3.3516 5.93841 3.29314 5.87577C2.91308 5.49166 2.53512 5.10753 2.15921 4.72339C2.02975 4.59187 2.02975 4.40813 2.15506 4.28289C2.28034 4.15761 2.47039 4.1597 2.60194 4.29332C2.88592 4.57725 3.16992 4.86534 3.44974 5.15552C3.50195 5.20982 3.52284 5.19936 3.56668 5.15137C4.16811 4.48957 4.76949 3.82568 5.37092 3.1618Z" fill="#02BA96"/>
</svg>
