<svg width="14" height="14" viewBox="0 0 14 14" fill="none" xmlns="http://www.w3.org/2000/svg">
<path fill-rule="evenodd" clip-rule="evenodd" d="M7.77788 1.71332V5.16717C8.22038 5.1789 8.66354 5.17636 9.09671 5.17387C9.43616 5.17193 9.78209 5.15672 10.1231 5.14172C11.8502 5.06579 13.4522 4.99535 13.4522 6.68047C13.4522 9.16408 12.9003 14 10.5719 14L5.8462 13.9766L5.84384 13.9691L0.663632 14C0.320725 14.002 0.0410853 13.7257 0.0390375 13.3828L1.1309e-05 6.84783C-0.00203649 6.50492 0.274284 6.22528 0.61719 6.22324L3.21187 6.20774L4.98384 0.00585259C5.91518 -0.0458889 7.77788 0.223167 7.77788 1.71332ZM10.5737 13.0686L10.5719 13.0686L5.96699 13.0458C5.92476 13.0402 5.88179 13.0375 5.83828 13.0377L4.05247 13.0484V6.60886C4.07452 6.56262 4.09295 6.5141 4.10738 6.4636L5.679 0.96294C5.91655 0.994335 6.15879 1.05065 6.36623 1.1387C6.74404 1.29905 6.84653 1.47342 6.84653 1.71332V5.16717C6.84653 5.67192 7.24861 6.08481 7.75319 6.09819C8.21075 6.11032 8.66647 6.10771 9.09521 6.10525L9.10205 6.10521C9.45827 6.10316 9.83835 6.08652 10.1904 6.07111C10.3611 6.06363 10.5253 6.05645 10.6769 6.05135C11.1755 6.0346 11.5821 6.03771 11.9069 6.08689C12.237 6.13685 12.3688 6.21866 12.4173 6.26513L12.4176 6.26537C12.4383 6.28515 12.5208 6.36411 12.5208 6.68047C12.5208 7.87572 12.386 9.61202 11.9889 11.0185C11.789 11.7264 11.542 12.2795 11.2664 12.6372C11.0053 12.9761 10.7818 13.0681 10.5737 13.0686ZM3.12113 7.13965L0.933196 7.15271L0.968514 13.0668L3.12113 13.054L3.12113 7.13965Z" fill="#007740"/>
</svg>
