<svg width="15" height="13" viewBox="0 0 15 13" fill="none" xmlns="http://www.w3.org/2000/svg">
<path d="M7.88203 4.10716L7.05727 2.56628L6.23252 4.10716L4.49099 4.40422L5.7228 5.6536L5.47124 7.37806L7.05727 6.6093L8.6433 7.37806L8.39175 5.6536L9.62355 4.40422L7.88203 4.10716Z" fill="#7E7E7E"/>
<path fill-rule="evenodd" clip-rule="evenodd" d="M4.0962 9.94434L6.82154 12.8968C6.94857 13.0344 7.16598 13.0344 7.29301 12.8968L10.0183 9.94434H12.5106C13.3965 9.94434 14.1145 9.22625 14.1145 8.34041V1.60393C14.1145 0.718086 13.3965 0 12.5106 0H1.60393C0.718086 0 0 0.718086 0 1.60393V8.34041C0 9.22625 0.718086 9.94434 1.60393 9.94434H4.0962ZM9.597 8.98198L7.05727 11.7333L4.51754 8.98198H1.60393C1.24958 8.98198 0.962355 8.6948 0.962355 8.34041V1.60393C0.962355 1.24954 1.24958 0.962355 1.60393 0.962355H12.5106C12.865 0.962355 13.1522 1.24954 13.1522 1.60393V8.34041C13.1522 8.6948 12.865 8.98198 12.5106 8.98198H9.597Z" fill="#7E7E7E"/>
</svg>
