<svg width="14" height="12" viewBox="0 0 14 12" fill="none" xmlns="http://www.w3.org/2000/svg">
<path d="M13.6818 2.18038C13.3725 3.27224 13.0598 4.36319 12.7437 5.45325C12.536 6.17484 12.3286 6.89485 12.1213 7.61328C12.037 7.90688 11.9173 7.99618 11.6125 7.99618C9.25127 7.99618 6.88978 7.99618 4.52807 7.99618C4.33965 7.99618 4.18388 8.04488 4.09409 8.22145C4.06471 8.27932 4.05004 8.34348 4.05138 8.4083C4.05273 8.47312 4.07003 8.53663 4.10179 8.59325C4.13355 8.64987 4.17878 8.69788 4.23353 8.73308C4.28829 8.76827 4.35088 8.78957 4.41583 8.79511C4.46931 8.79782 4.52289 8.79782 4.57637 8.79511C6.92856 8.79511 9.28097 8.79511 11.6336 8.79511C11.822 8.79511 11.9785 8.84314 12.0676 9.02106C12.0981 9.08069 12.1129 9.14708 12.1104 9.21395C12.108 9.28082 12.0885 9.34597 12.0537 9.40325C12.0189 9.46053 11.97 9.50804 11.9116 9.54131C11.8532 9.57457 11.7873 9.59249 11.72 9.59337C11.6431 9.59337 11.1139 9.59676 11.1139 9.59743H11.1017C11.4041 9.64404 11.6777 9.80246 11.8678 10.041C12.0579 10.2796 12.1504 10.5807 12.1269 10.8842C12.1034 11.1877 11.9656 11.4711 11.741 11.6779C11.5165 11.8847 11.2217 11.9996 10.9156 11.9996C10.6096 11.9996 10.3148 11.8847 10.0903 11.6779C9.86568 11.4711 9.72787 11.1877 9.70437 10.8842C9.68087 10.5807 9.7734 10.2796 9.96348 10.041C10.1536 9.80246 10.4272 9.64404 10.7296 9.59743C9.71405 9.59743 6.92856 9.59743 5.36882 9.58661C5.68278 9.60878 5.97583 9.75127 6.18625 9.98406C6.39667 10.2169 6.50803 10.5218 6.49688 10.8346C6.48572 11.1474 6.35292 11.4437 6.12645 11.6611C5.89998 11.8785 5.59752 12 5.28277 12C4.96802 12 4.66556 11.8785 4.43909 11.6611C4.21262 11.4437 4.07982 11.1474 4.06867 10.8346C4.05751 10.5218 4.16887 10.2169 4.37929 9.98406C4.58971 9.75127 4.88277 9.60878 5.19672 9.58661C4.68588 9.58661 4.33829 9.57917 4.28251 9.57375C4.0369 9.54323 3.8072 9.43655 3.626 9.26885C3.44481 9.10115 3.32132 8.88096 3.27307 8.63952C3.221 8.39149 3.24938 8.13343 3.35413 7.90247C3.45888 7.6715 3.63461 7.47953 3.85602 7.35419C3.89071 7.33457 3.92404 7.3163 3.97233 7.29127L2.52211 0.803723C2.52211 0.803723 1.53511 0.807105 0.545399 0.807105C0.432902 0.814678 0.320269 0.794459 0.217534 0.748251C0.157861 0.717265 0.106821 0.672081 0.0689614 0.616724C0.0311018 0.561367 0.00759825 0.497556 0.000544692 0.430976C-0.00345611 0.356379 0.0146507 0.282254 0.0526193 0.217796C0.0905879 0.153339 0.146748 0.101384 0.214133 0.068377C0.31692 0.0187306 0.430572 -0.00452647 0.544719 0.000727918C1.28139 0.0115518 2.01807 0.00478687 2.75474 0.00478687C3.05472 0.00478687 3.18668 0.10829 3.25266 0.397152C3.34381 0.794252 3.43224 1.19203 3.52475 1.60334H13.2314C13.4974 1.60334 13.6573 1.6994 13.7001 1.90776C13.7151 1.99883 13.7088 2.0921 13.6818 2.18038Z" fill="#007740"/>
</svg>
