<svg width="350" height="232" viewBox="0 0 350 232" fill="none" xmlns="http://www.w3.org/2000/svg">
<path d="M16.7945 203.576C18.5658 199.698 19.7872 196.507 20.4588 194.003H20.7641C22.6147 194.003 23.5401 194.868 23.5401 196.597C23.5401 197.628 22.6438 200.185 20.8514 204.266L27.593 204.052C28.4442 202.3 29.2585 200.782 30.0358 199.5C30.6938 198.383 31.4418 197.322 32.2724 196.327C32.8745 195.591 33.6005 194.966 34.4178 194.479C35.0826 194.096 35.8354 193.891 36.6029 193.884C37.448 193.868 38.275 194.131 38.9545 194.634C36.5514 196.72 34.1944 200.003 31.8838 204.485C29.2982 209.45 28.0054 213.787 28.0054 217.496C27.5635 217.494 27.1284 217.387 26.7364 217.183C26.3311 216.975 25.967 216.696 25.6617 216.358C25.3387 216 25.0797 215.59 24.8963 215.144C24.6999 214.686 24.5987 214.192 24.5989 213.693C24.5989 211.686 25.3273 209.069 26.784 205.841L19.9393 206.392L16.2433 213.613C15.2677 215.345 14.1428 216.211 12.8685 216.211C11.5942 216.211 10.7416 215.919 10.3107 215.335C11.9207 213.164 13.7529 209.961 15.8071 205.726C14.5658 205.206 13.9432 204.354 13.9432 203.16C13.9239 202.874 14.0115 202.592 14.1891 202.367C14.9984 202.885 15.8715 203.295 16.7866 203.588L16.7945 203.576Z" fill="#54453B"/>
<path d="M35.9763 205.762C37.1066 204.593 38.4631 203.667 39.9631 203.039C41.463 202.412 43.075 202.097 44.7008 202.113C46.5725 202.113 47.9883 202.499 48.948 203.271C48.0729 204.857 47.3551 206.263 46.7946 207.487C46.2852 208.566 45.8363 209.673 45.4503 210.802C45.1279 211.738 44.8904 212.702 44.7404 213.681C44.5988 214.634 44.5194 215.596 44.5025 216.56C44.0686 216.574 43.638 216.48 43.2492 216.287C42.8604 216.094 42.5253 215.807 42.2738 215.454C41.6907 214.604 41.4011 213.588 41.4489 212.559C41.4462 212.171 41.4661 211.783 41.5084 211.397C41.5343 211.118 41.618 210.848 41.7543 210.604C40.8597 212.115 39.7067 213.457 38.3478 214.569C37.2689 215.42 35.9347 215.883 34.5606 215.882C33.2255 215.882 32.5646 214.935 32.5778 213.042C32.5513 210.449 33.6842 208.022 35.9763 205.762ZM43.6737 206.265L45.5811 203.731L44.788 203.64C44.7246 203.644 44.6611 203.644 44.5977 203.64C44.5238 203.633 44.4495 203.633 44.3756 203.64C43.4483 203.653 42.5436 203.928 41.7662 204.433C40.8914 204.97 40.1049 205.639 39.4344 206.416C38.7555 207.201 38.1932 208.08 37.7648 209.025C37.3664 209.843 37.1473 210.737 37.1224 211.647C37.1224 212.083 37.3207 212.301 37.7173 212.301C38.3771 212.245 39.0014 211.978 39.4978 211.539C40.3437 210.831 41.0812 210.003 41.6869 209.081L43.6737 206.265Z" fill="#54453B"/>
<path d="M59.1437 205.302C58.6948 205.346 58.2655 205.507 57.8984 205.769C57.3152 206.141 56.7705 206.57 56.2725 207.05C55.6935 207.598 55.0908 208.224 54.4642 208.93C53.8376 209.636 53.2362 210.379 52.6598 211.159C52.0951 211.923 51.5722 212.717 51.0934 213.538C50.6613 214.281 50.2887 215.057 49.979 215.858C49.6795 215.865 49.3825 215.801 49.1123 215.672C48.8422 215.542 48.6065 215.351 48.4245 215.113C48.0122 214.575 47.8004 213.91 47.8257 213.233C47.8257 212.276 48.5342 210.647 49.9513 208.347C50.7444 207.031 51.3948 205.853 51.9063 204.802C52.3519 203.912 52.7143 202.983 52.989 202.026C54.7814 202.026 55.6777 202.744 55.6777 204.179C55.6777 205.2 55.1688 206.346 54.1509 207.617C55.1079 206.578 55.9354 205.726 56.6334 205.06C57.2237 204.478 57.8618 203.948 58.5409 203.473C59.0385 203.126 59.587 202.859 60.1668 202.68C60.7141 202.528 61.2801 202.453 61.8482 202.458C63.0485 202.458 63.6486 203.212 63.6486 204.719C63.6486 205.951 63.0485 207.763 61.8482 210.155C60.4602 212.884 59.6142 215.191 59.3102 217.076C58.9347 217.083 58.563 216.998 58.2277 216.829C57.8925 216.66 57.6038 216.411 57.3869 216.104C56.8749 215.386 56.6168 214.518 56.6532 213.637C56.6532 212.487 57.1423 210.986 58.1205 209.132C59.0987 207.279 59.5772 206.138 59.5561 205.71C59.5646 205.654 59.5605 205.598 59.544 205.544C59.5276 205.491 59.4993 205.441 59.4612 205.4C59.423 205.359 59.3761 205.327 59.3239 205.306C59.2716 205.286 59.2155 205.277 59.1595 205.282L59.1437 205.302Z" fill="#54453B"/>
<path d="M67.0868 205.456C69.3367 203.267 71.7544 202.173 74.34 202.173C76.4048 202.173 77.4385 203.119 77.4411 205.012C77.4411 207.243 76.463 209.561 74.5066 211.964C72.3175 214.647 69.8337 215.99 67.0551 215.993C64.8053 215.993 63.6804 214.857 63.6804 212.586C63.6804 210.043 64.8159 207.664 67.0868 205.448V205.456ZM70.4299 206.801C68.8436 208.691 68.0505 210.534 68.0505 212.329C68.0505 213.042 68.3836 213.399 69.0419 213.399C69.564 213.392 70.0762 213.256 70.533 213.003C71.0735 212.717 71.5736 212.361 72.0201 211.944C72.5254 211.476 72.9861 210.962 73.3962 210.409C73.8311 209.836 74.2184 209.229 74.5542 208.593C74.8649 207.991 75.1211 207.361 75.3195 206.713C75.4954 206.157 75.5902 205.579 75.6011 204.996C75.6011 204.334 75.3116 204.001 74.7286 204.001C73.4306 203.993 71.9976 204.926 70.4299 206.801Z" fill="#54453B"/>
<path d="M84.7697 204.952C84.7697 205.389 84.5 206.099 83.9766 207.074L82.192 209.902C80.6216 212.508 79.8377 214.728 79.8404 216.56V216.865C79.4563 216.868 79.0785 216.768 78.7459 216.576C78.4074 216.376 78.1165 216.106 77.8933 215.783C77.3844 215.04 77.1146 214.16 77.12 213.261C77.12 212.071 77.7558 210.31 79.0274 207.978L81.962 202.494C83.847 202.494 84.7882 203.319 84.7855 204.968L84.7697 204.952ZM83.9171 198.536C83.909 198.251 83.9574 197.966 84.0595 197.699C84.1615 197.433 84.3153 197.189 84.5119 196.982C84.6953 196.78 84.9197 196.62 85.17 196.512C85.4203 196.403 85.6908 196.35 85.9633 196.355C87.2852 196.355 87.9462 196.98 87.9462 198.231C87.9594 198.8 87.7519 199.353 87.3672 199.773C87.1803 199.983 86.9495 200.15 86.6911 200.261C86.4328 200.372 86.1532 200.425 85.8721 200.416C84.5688 200.416 83.9171 199.789 83.9171 198.536Z" fill="#54453B"/>
<path d="M97.781 206.555C97.8042 206.853 97.8697 207.147 97.9753 207.427C98.1022 207.824 98.2449 208.256 98.3996 208.724C98.5543 209.192 98.705 209.66 98.8358 210.128C98.9587 210.529 99.0255 210.945 99.0341 211.365C99.0353 211.988 98.8637 212.599 98.5384 213.13C98.1903 213.705 97.7272 214.201 97.1782 214.589C96.5656 215.025 95.8885 215.362 95.1716 215.588C94.3928 215.848 93.5775 215.982 92.7565 215.985C91.2284 215.985 90.4657 215.546 90.4683 214.668C90.4484 214.329 90.5518 213.994 90.7595 213.725C90.9672 213.456 91.2652 213.271 91.5985 213.205C91.6607 213.581 91.8609 213.921 92.1601 214.158C92.4592 214.395 92.8358 214.512 93.2165 214.486C93.5099 214.497 93.8024 214.447 94.0755 214.339C94.3486 214.232 94.5962 214.068 94.8028 213.859C95.0154 213.621 95.1789 213.344 95.2837 213.042C95.3885 212.741 95.4326 212.421 95.4135 212.103C95.3899 211.773 95.3149 211.449 95.1914 211.143C95.0407 210.746 94.8741 210.274 94.6878 209.791C94.5014 209.307 94.3308 208.831 94.1841 208.363C94.052 207.989 93.9771 207.597 93.962 207.201C93.9665 206.513 94.1614 205.839 94.5252 205.254C94.918 204.611 95.4293 204.048 96.0321 203.596C96.6858 203.104 97.4141 202.72 98.1894 202.458C99.0067 202.18 99.8643 202.04 100.727 202.042C102.314 202.042 103.107 202.486 103.107 203.382C103.135 203.729 103.034 204.074 102.824 204.351C102.613 204.628 102.307 204.817 101.965 204.881C101.77 204.088 101.223 203.719 100.331 203.719C99.976 203.703 99.622 203.768 99.2961 203.909C98.9702 204.051 98.6812 204.265 98.4512 204.536C97.9811 205.109 97.7358 205.834 97.7611 206.574L97.781 206.555Z" fill="#54453B"/>
<path d="M104.693 205.762C105.823 204.593 107.18 203.667 108.68 203.039C110.18 202.412 111.792 202.097 113.417 202.113C115.292 202.113 116.708 202.499 117.665 203.271C116.79 204.857 116.072 206.263 115.511 207.487C115.005 208.567 114.557 209.674 114.167 210.802C113.847 211.739 113.609 212.702 113.457 213.681C113.316 214.634 113.236 215.596 113.219 216.56C112.785 216.573 112.355 216.479 111.966 216.286C111.577 216.093 111.242 215.807 110.991 215.454C110.407 214.604 110.118 213.588 110.166 212.559C110.163 212.171 110.183 211.783 110.225 211.397C110.253 211.118 110.336 210.849 110.471 210.604C109.576 212.104 108.426 213.437 107.072 214.541C105.994 215.393 104.659 215.855 103.285 215.854C101.963 215.854 101.302 214.908 101.302 213.015C101.279 210.44 102.409 208.022 104.693 205.762ZM112.39 206.265L114.298 203.731L113.505 203.64C113.441 203.644 113.378 203.644 113.314 203.64C113.24 203.633 113.166 203.633 113.092 203.64C112.165 203.653 111.261 203.928 110.483 204.433C109.609 204.97 108.824 205.639 108.155 206.416C107.475 207.201 106.911 208.08 106.482 209.025C106.083 209.843 105.864 210.737 105.839 211.647C105.839 212.083 106.037 212.301 106.434 212.301C107.094 212.245 107.718 211.978 108.215 211.539C109.061 210.83 109.799 210.002 110.408 209.081L112.39 206.265Z" fill="#54453B"/>
<path d="M133.733 196.767V196.795C133.628 196.543 133.45 196.327 133.222 196.175C132.994 196.023 132.726 195.943 132.453 195.943C130.264 195.943 127.977 198.207 125.592 202.736H129.915C129.912 203.144 129.763 203.538 129.494 203.846C129.372 204.007 129.215 204.137 129.033 204.226C128.852 204.314 128.653 204.36 128.451 204.358H124.938C123.663 207.023 122.404 209.921 121.158 213.054C119.913 216.187 118.663 219.682 117.407 223.539C117.315 223.518 117.228 223.477 117.153 223.421C117.077 223.364 117.014 223.292 116.967 223.21C116.802 222.967 116.675 222.699 116.59 222.417C116.474 222.037 116.385 221.648 116.324 221.255C116.251 220.791 116.215 220.322 116.217 219.851C116.217 216.642 117.803 211.487 120.976 204.385H118.545C118.545 203.977 118.685 203.581 118.942 203.263C119.064 203.104 119.223 202.975 119.405 202.889C119.587 202.803 119.787 202.761 119.989 202.767H121.638C122.372 201.374 123.203 200.035 124.125 198.758C124.838 197.771 125.68 196.883 126.627 196.117C127.437 195.47 128.359 194.977 129.347 194.666C130.368 194.365 131.428 194.218 132.492 194.229C133.971 194.229 134.709 194.65 134.709 195.483C134.745 195.783 134.666 196.086 134.487 196.33C134.308 196.573 134.043 196.74 133.745 196.795L133.733 196.767Z" fill="#54453B"/>
<path d="M125.152 213.062C125.152 210.556 126.536 208.112 129.304 205.73C131.948 203.461 134.544 202.326 137.092 202.323C138.367 202.323 139.004 202.909 139.004 204.08C138.996 204.791 138.772 205.483 138.361 206.063C137.89 206.742 137.291 207.323 136.597 207.772C135.771 208.317 134.871 208.739 133.924 209.025C132.84 209.367 131.721 209.585 130.589 209.676C129.822 211.143 129.44 212.364 129.443 213.34C129.443 214.073 129.764 214.438 130.406 214.438C132.096 214.438 133.897 213.07 135.812 210.334C135.95 210.485 136.056 210.663 136.124 210.857C136.193 211.05 136.221 211.255 136.208 211.46C136.204 212.105 135.971 212.728 135.55 213.217C135.06 213.802 134.46 214.285 133.785 214.641C132.99 215.068 132.144 215.394 131.267 215.608C130.315 215.849 129.338 215.97 128.356 215.969C127.49 216.021 126.638 215.737 125.977 215.176C125.69 214.905 125.466 214.574 125.32 214.208C125.173 213.842 125.108 213.448 125.128 213.054L125.152 213.062ZM134.071 205.103C133.598 205.536 133.16 206.004 132.758 206.503C132.338 207.015 131.933 207.562 131.537 208.145C132.272 208.067 132.996 207.905 133.694 207.661C134.339 207.444 134.957 207.155 135.538 206.801C136.035 206.499 136.479 206.117 136.851 205.67C137.167 205.3 137.363 204.842 137.414 204.358C137.409 204.281 137.388 204.206 137.354 204.137C137.32 204.069 137.272 204.008 137.213 203.958C137.155 203.908 137.087 203.87 137.014 203.847C136.941 203.824 136.864 203.815 136.787 203.822C136.012 203.83 135.107 204.257 134.071 205.103Z" fill="#54453B"/>
<path d="M162.722 196.767V196.795C162.616 196.543 162.437 196.327 162.208 196.175C161.98 196.024 161.712 195.943 161.437 195.943C159.248 195.943 156.963 198.207 154.581 202.736H158.903C158.901 203.144 158.752 203.538 158.483 203.846C158.36 204.007 158.202 204.136 158.02 204.225C157.838 204.314 157.638 204.359 157.436 204.358H153.923C152.651 207.023 151.391 209.921 150.143 213.054C148.895 216.187 147.646 219.682 146.396 223.539C146.303 223.518 146.216 223.478 146.14 223.421C146.063 223.364 145.999 223.293 145.952 223.21C145.788 222.966 145.662 222.699 145.579 222.417C145.461 222.037 145.371 221.649 145.309 221.255C145.236 220.791 145.2 220.321 145.202 219.851C145.202 216.642 146.788 211.487 149.961 204.385H147.522C147.52 203.977 147.66 203.58 147.919 203.263C148.041 203.103 148.2 202.974 148.382 202.888C148.564 202.802 148.764 202.76 148.966 202.767H150.615C151.349 201.374 152.18 200.035 153.102 198.758C153.816 197.771 154.659 196.883 155.608 196.117C156.416 195.47 157.337 194.977 158.324 194.666C159.347 194.365 160.408 194.218 161.473 194.229C162.948 194.229 163.686 194.65 163.686 195.483C163.722 195.782 163.644 196.085 163.465 196.328C163.287 196.572 163.023 196.739 162.726 196.795L162.722 196.767Z" fill="#54453B"/>
<path d="M157.88 205.456C160.128 203.267 162.545 202.173 165.133 202.173C167.198 202.173 168.232 203.119 168.235 205.012C168.235 207.243 167.258 209.561 165.304 211.964C163.112 214.647 160.627 215.99 157.849 215.993C155.599 215.993 154.474 214.857 154.474 212.586C154.474 210.043 155.609 207.664 157.88 205.448V205.456ZM161.223 206.801C159.637 208.691 158.844 210.534 158.844 212.329C158.844 213.042 159.177 213.399 159.839 213.399C160.36 213.391 160.871 213.255 161.326 213.003C161.868 212.717 162.369 212.361 162.818 211.944C163.32 211.475 163.78 210.961 164.19 210.409C164.619 209.837 165 209.229 165.328 208.593C165.639 207.991 165.895 207.361 166.093 206.713C166.269 206.157 166.364 205.579 166.375 204.996C166.375 204.334 166.085 204.001 165.502 204.001C164.217 203.993 162.791 204.926 161.223 206.801Z" fill="#54453B"/>
<path d="M171.074 205.456C173.326 203.267 175.746 202.173 178.331 202.173C180.396 202.173 181.428 203.119 181.428 205.012C181.428 207.243 180.451 209.561 178.498 211.964C176.309 214.647 173.825 215.99 171.046 215.993C168.794 215.993 167.667 214.857 167.667 212.586C167.667 210.043 168.803 207.664 171.074 205.448V205.456ZM174.421 206.801C172.835 208.691 172.042 210.534 172.042 212.329C172.042 213.042 172.371 213.399 173.033 213.399C173.555 213.392 174.067 213.256 174.524 213.003C175.063 212.715 175.563 212.36 176.011 211.944C176.515 211.475 176.976 210.961 177.387 210.409C177.815 209.836 178.196 209.228 178.525 208.593C178.835 207.99 179.09 207.361 179.287 206.713C179.464 206.158 179.559 205.579 179.568 204.996C179.568 204.334 179.279 204.001 178.7 204.001C177.415 203.993 175.989 204.926 174.421 206.801Z" fill="#54453B"/>
<path d="M203.239 194.828C201.175 196.557 198.955 199.555 196.581 203.822C193.842 208.811 192.473 213.057 192.473 216.56C192.04 216.575 191.611 216.481 191.224 216.288C190.837 216.095 190.504 215.808 190.256 215.454C189.689 214.598 189.411 213.584 189.463 212.559C189.425 211.886 189.519 211.212 189.74 210.576C187.591 214.097 185.254 215.858 182.729 215.858C181.275 215.858 180.547 214.922 180.544 213.05C180.552 211.656 180.894 210.283 181.543 209.049C182.216 207.741 183.121 206.566 184.216 205.583C185.354 204.557 186.656 203.729 188.067 203.132C189.49 202.511 191.027 202.191 192.58 202.192L193.678 202.311C194.678 200.479 195.549 199.016 196.292 197.921C196.875 197.023 197.548 196.184 198.298 195.419C198.752 194.94 199.3 194.561 199.908 194.305C200.379 194.137 200.875 194.051 201.375 194.051C202.243 194.059 202.864 194.318 203.239 194.828ZM186.822 206.832C185.436 208.625 184.744 210.253 184.744 211.718C184.744 212.154 184.934 212.376 185.311 212.376C186.44 212.376 187.809 211.342 189.419 209.275L192.885 203.929L191.937 203.834C190.034 203.834 188.323 204.838 186.806 206.844L186.822 206.832Z" fill="#54453B"/>
<path d="M199.603 211.658C200.162 211.622 200.718 211.761 201.195 212.056C201.671 212.351 202.043 212.788 202.26 213.304L202.399 213.887C202.399 215.933 201.019 217.583 198.259 218.836C197.732 219.039 197.173 219.146 196.609 219.154L195.665 218.971V218.836C197.527 217.304 198.84 215.208 199.405 212.864L199.603 211.658Z" fill="#54453B"/>
<path d="M225.871 194.828C223.407 196.861 220.934 200.027 218.452 204.326C215.678 209.164 214.293 213.292 214.296 216.711C213.921 216.709 213.552 216.616 213.222 216.439C212.891 216.262 212.609 216.007 212.4 215.695C211.867 214.936 211.599 214.021 211.639 213.094C211.639 210.752 212.84 207.447 215.243 203.18C216.121 201.623 216.943 200.272 217.71 199.127C218.368 198.123 219.103 197.171 219.907 196.28C220.49 195.619 221.176 195.057 221.937 194.614C222.543 194.272 223.225 194.088 223.92 194.079C224.281 194.049 224.643 194.102 224.979 194.235C225.316 194.368 225.617 194.576 225.859 194.844L225.871 194.828Z" fill="#54453B"/>
<path d="M217.547 213.062C217.547 210.556 218.933 208.112 221.703 205.73C224.347 203.461 226.943 202.326 229.492 202.323C230.764 202.323 231.399 202.909 231.399 204.08C231.391 204.79 231.169 205.481 230.761 206.063C230.289 206.742 229.69 207.322 228.996 207.772C228.17 208.315 227.27 208.737 226.323 209.025C225.238 209.367 224.118 209.585 222.984 209.676C222.223 211.143 221.841 212.364 221.838 213.34C221.838 214.073 222.159 214.438 222.802 214.438C224.491 214.438 226.293 213.07 228.207 210.334C228.346 210.485 228.453 210.663 228.521 210.856C228.589 211.05 228.617 211.255 228.604 211.46C228.6 212.105 228.368 212.727 227.949 213.217C227.457 213.8 226.858 214.283 226.185 214.641C225.389 215.068 224.543 215.394 223.666 215.608C222.715 215.849 221.737 215.97 220.756 215.969C219.89 216.019 219.038 215.735 218.376 215.176C218.091 214.904 217.867 214.574 217.721 214.208C217.574 213.842 217.508 213.448 217.528 213.054L217.547 213.062ZM226.466 205.103C225.995 205.537 225.556 206.005 225.154 206.503C224.738 207.013 224.331 207.561 223.932 208.145C224.669 208.067 225.394 207.905 226.093 207.661C226.737 207.444 227.354 207.155 227.933 206.801C228.432 206.501 228.875 206.118 229.246 205.67C229.562 205.299 229.759 204.842 229.813 204.358C229.808 204.281 229.788 204.206 229.753 204.137C229.719 204.069 229.671 204.008 229.613 203.958C229.554 203.908 229.487 203.87 229.413 203.847C229.34 203.824 229.263 203.815 229.187 203.822C228.412 203.83 227.505 204.257 226.466 205.103Z" fill="#54453B"/>
<path d="M241.298 204.385H238.625C238.06 205.312 237.545 206.267 237.082 207.249C236.628 208.205 236.23 209.188 235.892 210.191C235.585 211.114 235.331 212.055 235.131 213.007C234.951 213.833 234.857 214.675 234.85 215.521V215.918C234.848 216.031 234.857 216.143 234.877 216.255C234.451 216.271 234.027 216.188 233.639 216.012C233.251 215.835 232.909 215.571 232.641 215.239C232.048 214.439 231.754 213.458 231.808 212.464C231.808 210.378 232.724 207.694 234.556 204.413H232.312C232.319 204.011 232.458 203.622 232.708 203.307C232.822 203.139 232.976 203.001 233.156 202.907C233.336 202.812 233.536 202.763 233.739 202.764H235.559C235.956 202.113 236.33 201.533 236.682 201.023C237.001 200.55 237.372 200.115 237.788 199.726C238.153 199.386 238.578 199.117 239.041 198.933C239.548 198.745 240.087 198.654 240.627 198.667C241.389 198.631 242.14 198.862 242.749 199.321C242.224 199.788 241.727 200.286 241.262 200.812C240.709 201.436 240.191 202.09 239.711 202.771H242.721C242.725 203.185 242.585 203.588 242.325 203.91C242.206 204.071 242.05 204.201 241.871 204.29C241.692 204.379 241.494 204.424 241.294 204.421L241.298 204.385Z" fill="#54453B"/>
<path d="M254.357 204.627C254.357 205.788 253.837 207.264 252.798 209.057C251.759 210.849 251.23 211.969 251.212 212.416C251.203 212.471 251.207 212.528 251.224 212.582C251.24 212.635 251.269 212.685 251.307 212.726C251.345 212.767 251.392 212.799 251.444 212.819C251.496 212.84 251.552 212.848 251.608 212.844C252.041 212.805 252.453 212.644 252.798 212.38C253.344 212.003 253.855 211.579 254.325 211.111C254.924 210.52 255.492 209.898 256.026 209.247C256.613 208.541 257.176 207.796 257.723 207.019C258.271 206.241 258.762 205.432 259.21 204.639C259.633 203.888 260 203.108 260.309 202.303C260.602 202.299 260.891 202.365 261.153 202.495C261.416 202.626 261.643 202.817 261.816 203.053C262.217 203.584 262.424 204.236 262.403 204.901C262.362 205.681 262.175 206.446 261.852 207.157L260.598 209.755C260.03 210.901 259.584 212.104 259.266 213.344C258.995 214.398 258.843 215.48 258.814 216.568C258.396 216.59 257.98 216.503 257.606 216.317C257.231 216.131 256.911 215.851 256.676 215.505C256.141 214.622 255.885 213.598 255.943 212.567C255.898 211.888 256.013 211.209 256.28 210.584C253.591 213.984 251.163 215.684 248.995 215.684C248.738 215.689 248.483 215.635 248.25 215.526C248.017 215.418 247.812 215.257 247.651 215.057C247.269 214.566 247.079 213.953 247.115 213.332C247.115 212.142 247.762 210.401 249.054 208.109C250.49 205.505 251.365 203.266 251.68 201.391C252.047 201.38 252.413 201.453 252.747 201.607C253.082 201.76 253.376 201.989 253.607 202.276C254.129 202.945 254.394 203.779 254.357 204.627Z" fill="#54453B"/>
<path d="M268.054 206.555C268.077 206.853 268.141 207.146 268.244 207.427C268.371 207.824 268.514 208.256 268.673 208.724C268.831 209.192 268.974 209.66 269.109 210.128C269.23 210.529 269.296 210.946 269.307 211.365C269.306 211.987 269.135 212.598 268.811 213.13C268.462 213.704 267.999 214.2 267.451 214.589C266.838 215.024 266.161 215.361 265.444 215.588C264.666 215.848 263.85 215.982 263.029 215.985C261.501 215.985 260.737 215.546 260.737 214.668C260.717 214.329 260.821 213.994 261.028 213.725C261.236 213.456 261.534 213.271 261.867 213.205C261.931 213.581 262.133 213.921 262.432 214.157C262.732 214.394 263.108 214.511 263.489 214.486C263.783 214.498 264.076 214.448 264.349 214.34C264.622 214.232 264.869 214.068 265.076 213.859C265.294 213.62 265.461 213.34 265.568 213.035C265.675 212.729 265.719 212.406 265.698 212.083C265.675 211.753 265.6 211.429 265.476 211.123C265.329 210.726 265.163 210.255 264.973 209.771C264.782 209.287 264.616 208.811 264.469 208.343C264.339 207.969 264.264 207.577 264.247 207.181C264.253 206.492 264.449 205.818 264.814 205.234C265.206 204.591 265.716 204.029 266.317 203.576C267.673 202.564 269.32 202.018 271.012 202.022C272.599 202.022 273.392 202.466 273.392 203.362C273.42 203.71 273.319 204.055 273.107 204.332C272.895 204.609 272.588 204.798 272.246 204.861C272.05 204.087 271.505 203.699 270.612 203.699C270.257 203.684 269.903 203.749 269.577 203.891C269.252 204.032 268.963 204.246 268.732 204.516C268.265 205.091 268.021 205.815 268.046 206.555H268.054Z" fill="#54453B"/>
<path d="M285.13 206.555C285.153 206.853 285.217 207.146 285.32 207.427C285.447 207.824 285.59 208.256 285.749 208.724C285.903 209.192 286.05 209.66 286.181 210.128C286.304 210.529 286.371 210.945 286.379 211.365C286.38 211.988 286.209 212.599 285.883 213.13C285.535 213.705 285.072 214.201 284.523 214.589C283.911 215.025 283.234 215.362 282.517 215.588C281.739 215.848 280.925 215.982 280.105 215.985C278.575 215.985 277.813 215.545 277.813 214.668C277.793 214.329 277.897 213.994 278.105 213.725C278.312 213.456 278.61 213.271 278.944 213.205C279.006 213.581 279.206 213.921 279.505 214.158C279.804 214.395 280.181 214.512 280.562 214.486C280.855 214.497 281.147 214.447 281.421 214.339C281.694 214.232 281.941 214.068 282.148 213.859C282.362 213.618 282.525 213.337 282.628 213.032C282.732 212.727 282.773 212.404 282.751 212.083C282.727 211.753 282.652 211.429 282.529 211.123C282.382 210.726 282.211 210.255 282.025 209.771C281.838 209.287 281.668 208.811 281.521 208.343C281.389 207.969 281.314 207.577 281.299 207.181C281.304 206.493 281.499 205.819 281.862 205.234C282.255 204.591 282.766 204.029 283.369 203.576C284.024 203.084 284.754 202.7 285.53 202.438C286.346 202.16 287.203 202.02 288.065 202.022C289.651 202.022 290.464 202.466 290.464 203.362C290.491 203.71 290.389 204.055 290.178 204.331C289.966 204.608 289.66 204.797 289.318 204.861C289.122 204.087 288.577 203.699 287.684 203.699C287.329 203.683 286.975 203.748 286.649 203.889C286.323 204.031 286.034 204.245 285.804 204.516C285.335 205.09 285.091 205.814 285.118 206.555H285.13Z" fill="#54453B"/>
<path d="M288.211 213.062C288.211 210.556 289.597 208.112 292.367 205.73C295.011 203.461 297.607 202.326 300.156 202.323C301.43 202.323 302.067 202.909 302.067 204.08C302.06 204.791 301.836 205.483 301.425 206.063C300.954 206.742 300.354 207.323 299.66 207.772C298.834 208.316 297.934 208.738 296.987 209.025C295.904 209.367 294.785 209.585 293.652 209.676C292.885 211.143 292.503 212.364 292.506 213.34C292.506 214.073 292.827 214.438 293.466 214.438C295.155 214.438 296.958 213.07 298.875 210.334C299.013 210.485 299.12 210.663 299.188 210.857C299.256 211.05 299.284 211.255 299.271 211.46C299.266 212.105 299.033 212.727 298.613 213.217C298.122 213.8 297.522 214.284 296.848 214.641C296.053 215.068 295.207 215.394 294.33 215.608C293.379 215.849 292.401 215.97 291.419 215.969C290.554 216.019 289.702 215.735 289.04 215.176C288.754 214.904 288.531 214.574 288.384 214.208C288.238 213.842 288.172 213.448 288.191 213.054L288.211 213.062ZM297.134 205.103C296.661 205.537 296.221 206.005 295.817 206.503C295.4 207.013 294.992 207.561 294.596 208.145C295.332 208.067 296.058 207.905 296.757 207.661C297.401 207.445 298.018 207.156 298.597 206.801C299.095 206.501 299.539 206.118 299.91 205.67C300.227 205.3 300.425 204.842 300.477 204.358C300.472 204.281 300.452 204.206 300.417 204.137C300.383 204.069 300.335 204.008 300.277 203.958C300.218 203.908 300.15 203.87 300.077 203.847C300.004 203.824 299.927 203.815 299.85 203.822C299.078 203.83 298.173 204.257 297.134 205.103Z" fill="#54453B"/>
<path d="M309.915 204.449C311.269 203.034 312.394 202.326 313.29 202.323C314.461 202.323 315.047 202.984 315.047 204.306C315.047 205.773 314.431 206.777 313.199 207.316C313.096 206.459 312.564 206.031 311.613 206.031C311.01 206.031 310.292 206.36 309.459 207.019C308.542 207.754 307.707 208.586 306.969 209.501C306.121 210.529 305.362 211.628 304.7 212.785C304.065 213.854 303.564 214.999 303.209 216.191C302.896 216.199 302.585 216.136 302.3 216.006C302.015 215.877 301.763 215.683 301.564 215.442C301.106 214.855 300.878 214.122 300.921 213.38C300.921 212.523 301.548 210.889 302.801 208.478C303.531 207.07 304.129 205.833 304.585 204.758C304.976 203.876 305.298 202.965 305.549 202.034C307.342 202.034 308.238 202.791 308.238 204.306C308.238 205.377 307.759 206.639 306.802 208.093L309.931 204.429L309.915 204.449Z" fill="#54453B"/>
<path d="M321.614 202.831C321.074 203.659 320.579 204.515 320.131 205.397C319.663 206.311 319.246 207.212 318.882 208.097C318.539 208.913 318.25 209.75 318.017 210.604C317.83 211.239 317.725 211.896 317.704 212.559C317.704 213.058 317.902 213.304 318.299 213.304C318.923 213.304 319.605 212.987 320.345 212.352C321.188 211.602 321.935 210.751 322.57 209.818C323.366 208.663 324.075 207.45 324.691 206.19C325.365 204.832 325.945 203.429 326.424 201.99C327.281 202.212 327.709 202.823 327.709 203.822C327.688 204.3 327.589 204.772 327.416 205.218C327.194 205.838 326.918 206.436 326.591 207.007C326.237 207.641 325.825 208.302 325.357 208.99C324.88 209.671 324.36 210.322 323.799 210.937C320.864 214.212 318.088 215.851 315.471 215.854C314.321 215.854 313.746 215.136 313.746 213.701C313.757 212.967 313.836 212.235 313.98 211.516C314.145 210.665 314.36 209.824 314.622 208.997C314.887 208.141 315.195 207.303 315.546 206.483C315.851 205.743 316.209 205.026 316.617 204.338C317.45 202.942 318.497 202.244 319.746 202.244C320.422 202.225 321.085 202.436 321.626 202.843L321.614 202.831Z" fill="#54453B"/>
<path d="M326.103 213.062C326.103 210.556 327.488 208.112 330.259 205.73C332.903 203.461 335.499 202.326 338.048 202.323C339.319 202.323 339.955 202.909 339.955 204.08C339.948 204.791 339.723 205.483 339.313 206.063C338.843 206.742 338.245 207.323 337.552 207.772C336.725 208.315 335.825 208.737 334.879 209.025C333.794 209.367 332.674 209.585 331.54 209.676C330.779 211.143 330.396 212.364 330.394 213.34C330.394 214.073 330.715 214.438 331.357 214.438C333.047 214.438 334.849 213.07 336.763 210.334C336.902 210.485 337.009 210.663 337.077 210.856C337.145 211.05 337.173 211.255 337.159 211.46C337.155 212.105 336.923 212.727 336.505 213.217C336.013 213.8 335.414 214.283 334.74 214.641C333.944 215.069 333.096 215.394 332.218 215.608C331.268 215.849 330.291 215.97 329.311 215.969C328.446 216.02 327.594 215.736 326.932 215.176C326.646 214.905 326.422 214.574 326.275 214.208C326.129 213.842 326.063 213.448 326.083 213.054L326.103 213.062ZM335.022 205.103C334.551 205.537 334.112 206.005 333.709 206.503C333.294 207.013 332.887 207.561 332.488 208.145C333.224 208.067 333.949 207.905 334.649 207.661C335.293 207.444 335.91 207.155 336.489 206.801C336.987 206.501 337.431 206.118 337.802 205.67C338.118 205.299 338.315 204.842 338.369 204.358C338.364 204.281 338.343 204.206 338.309 204.137C338.275 204.069 338.227 204.008 338.168 203.958C338.11 203.908 338.042 203.87 337.969 203.847C337.896 203.824 337.819 203.815 337.742 203.822C336.97 203.83 336.063 204.257 335.022 205.103Z" fill="#54453B"/>
<path d="M61.2891 96.4524C61.2891 96.4524 61.4517 93.6765 61.5865 92.3083C61.9486 88.445 62.6115 84.6158 63.5693 80.8555C65.9884 71.5561 70.0174 63.0617 76.4378 55.8006C78.9402 52.9731 81.8152 50.5739 84.7657 48.2143C87.1451 46.2949 92.4352 43.5111 92.4352 43.5111C89.4014 44.5958 86.4555 45.9123 83.6236 47.4489C80.929 48.914 78.3714 50.6181 75.9818 52.5408C74.2286 53.8783 72.5892 55.3586 71.0802 56.9665C67.3239 61.0613 64.2364 65.7226 61.9315 70.7788C59.6148 76.0629 58.1209 81.6705 57.5019 87.4068C57.1411 90.462 57.0217 93.541 57.145 96.615C57.1846 97.543 57.3869 99.391 57.3869 99.391C57.3869 99.391 53.913 91.3645 52.7788 86.3837C52.2831 84.2025 52.0689 80.4352 52.2831 77.457C53.08 67.4948 56.6854 57.9629 62.681 49.9671C69.486 40.8699 79.1305 34.4535 89.8734 30.932C102.48 26.8077 115.856 26.2089 128.626 22.7588C134.249 21.1405 139.666 18.8783 144.77 16.0172C149.378 13.3444 153.788 6.89624 153.788 6.89624C153.788 6.89624 151.511 21.811 149.461 28.0014C147.054 35.2665 143.049 41.552 137.854 47.1238C133.385 51.906 128.359 56.1357 122.883 59.7226C119.124 62.1972 115.004 63.9857 110.907 65.8218C107.461 67.3644 103.825 68.3122 100.244 69.4384C89.9726 72.6586 80.6295 77.5997 72.4405 84.6427C68.4748 88.0572 61.2891 96.4524 61.2891 96.4524Z" fill="#70AE43"/>
<path d="M46.6915 23.667C50.6571 26.6531 53.8297 30.3769 56.7682 34.3465C59.1 37.519 63.5098 45.2639 63.5098 45.2639L62.8475 46.1126C58.7911 51.1853 55.293 56.6803 52.4139 62.5026C50.1059 67.2614 48.4047 72.1946 47.7146 77.4412C46.642 85.0314 48.1712 92.7611 52.0531 99.3712C53.1595 101.291 55.757 104.923 55.757 104.923C55.757 104.923 50.8713 101.481 48.825 99.5734C46.7704 97.579 44.8793 95.4227 43.17 93.1253C38.7659 87.1189 35.7459 80.2121 34.3266 72.9005C33.3602 67.9529 33.0337 62.9016 33.355 57.8707C33.6564 52.5488 34.6082 47.3023 35.7146 42.0914C36.6227 37.8006 37.6062 33.5177 38.0543 29.1436C38.6095 23.1396 36.9162 19.1184 36.9162 19.1184C36.9162 19.1184 42.9916 20.8831 46.6915 23.667Z" fill="#007740"/>
<path d="M316.316 105.859C315.202 97.0928 311.187 88.9514 304.911 82.7313C296.868 74.6295 287.065 70.4378 275.608 70.4061C254.154 70.4061 182.63 70.3704 182.63 70.3704V104.269C182.63 126 182.63 175.254 182.63 175.254C184.536 175.254 186.441 175.254 188.344 175.254C198.044 175.214 205.305 167.917 206.297 159.621C206.439 158.393 206.507 157.158 206.499 155.921C206.499 136.739 206.499 95.5046 206.499 95.5046C206.499 95.5046 253.056 95.5046 274.899 95.5046C276.308 95.4722 277.717 95.5771 279.106 95.8179C285.78 97.1266 291.078 102.71 291.872 109.353C292.309 112.702 291.675 116.105 290.06 119.072C288.445 122.039 285.932 124.419 282.881 125.87C280.465 126.975 277.829 127.517 275.172 127.456C257.573 127.456 219.891 127.456 219.891 127.456C219.891 141.605 219.891 175.27 219.891 175.27H223.789C225.215 175.302 226.641 175.249 228.06 175.111C235.23 174.318 241.397 168.766 243.205 161.751C243.824 159.371 243.74 154.482 243.74 154.47V153.034C253.742 153.034 265.155 153.034 275.176 153.034C277.311 153.041 279.443 152.881 281.553 152.554C291.717 150.968 300.219 146.332 306.858 138.512C314.837 129.078 317.95 118.117 316.316 105.859Z" fill="#007740"/>
<path d="M182.63 70.3704H133.507C130.985 70.3704 128.471 70.414 125.949 70.5845C122.032 70.8368 118.13 71.2882 114.258 71.9368C105.534 73.4477 97.1623 76.0571 89.2747 80.1615C80.4624 84.6952 72.758 91.116 66.7101 98.9666C61.8449 105.372 58.0913 112.549 55.6063 120.199C53.8538 125.505 52.5849 130.959 51.8152 136.494C51.2344 140.288 50.8979 144.116 50.8079 147.954C50.6968 155.537 50.7087 175.254 50.7087 175.254H55.4675C56.6374 175.234 57.8152 175.19 58.64 175.099C62.3132 174.666 65.7658 173.119 68.534 170.666C71.3023 168.213 73.2536 164.972 74.1259 161.378C74.6493 159.141 74.5621 155.291 74.574 153.05C74.574 153.05 105.363 153.05 118.787 153.05C118.787 153.05 118.787 169.119 118.787 175.258H120.373C121.801 175.258 123.232 175.282 124.66 175.258C127.104 175.26 129.521 174.75 131.755 173.759C138.496 170.61 142.406 165.332 142.581 157.853C142.807 148.176 142.636 138.492 142.636 128.808V127.547H80.3757C80.3757 127.547 81.0737 125.671 81.3037 125.12C86.2608 113.267 94.664 104.959 106.735 100.434C114.425 97.5549 122.431 96.389 130.593 96.2978C139.353 96.1947 158.729 96.274 158.729 96.274V155.921C158.723 157.157 158.791 158.393 158.931 159.621C159.927 167.917 167.188 175.214 176.884 175.254C178.79 175.254 180.695 175.254 182.598 175.254L182.63 70.3704Z" fill="#70AE43"/>
</svg>
