<svg width="27" height="28" viewBox="0 0 27 28" fill="none" xmlns="http://www.w3.org/2000/svg">
<g clip-path="url(#clip0_91_2550)">
<path d="M13.5 28C20.9558 28 27 21.732 27 14C27 6.26801 20.9558 0 13.5 0C6.04416 0 0 6.26801 0 14C0 21.732 6.04416 28 13.5 28Z" fill="#CF4C3C"/>
<path d="M19.6682 11.7856L17.7423 14.1885L14.1161 10.2774H9.10592L7.07812 12.5544V17.4715L16.8142 27.5744C21.2225 26.4203 24.7674 23.0179 26.2492 18.6118L19.6682 11.7856Z" fill="#AD3228"/>
<path d="M11.1946 15.0579H13.6092C13.1854 16.3004 12.0374 17.1914 10.6937 17.1812C9.06316 17.1687 7.71469 15.816 7.65151 14.1262C7.5837 12.3149 8.9849 10.8188 10.7166 10.8188C11.5085 10.8188 12.2311 11.1318 12.7759 11.6445C12.905 11.7659 13.1012 11.7667 13.2282 11.6428L14.1151 10.7773C14.2539 10.6419 14.2543 10.4132 14.116 10.2775C13.2521 9.42852 12.0931 8.89947 10.8151 8.87371C8.08921 8.81837 5.79152 11.1361 5.77259 13.9635C5.75334 16.8122 7.97425 19.1276 10.7166 19.1276C13.3541 19.1276 15.5085 16.9861 15.6528 14.2885C15.6566 14.2547 15.6592 13.1117 15.6592 13.1117H11.1946C11.0116 13.1117 10.8634 13.2655 10.8634 13.4552V14.7143C10.8633 14.9041 11.0116 15.0579 11.1946 15.0579Z" fill="white"/>
<path d="M19.7511 13.226V11.9957C19.7511 11.8294 19.6212 11.6947 19.4608 11.6947H18.4623C18.302 11.6947 18.172 11.8294 18.172 11.9957V13.226H16.9859C16.8255 13.226 16.6953 13.3607 16.6953 13.5271V14.5625C16.6953 14.7286 16.8254 14.8636 16.9859 14.8636H18.172V16.0937C18.172 16.26 18.3019 16.3948 18.4623 16.3948H19.4608C19.6212 16.3948 19.7511 16.26 19.7511 16.0937V14.8636H20.9374C21.0977 14.8636 21.2278 14.7286 21.2278 14.5625V13.5271C21.2278 13.3608 21.0977 13.226 20.9374 13.226H19.7511Z" fill="#D1D1D1"/>
</g>
<defs>
<clipPath id="clip0_91_2550">
<rect width="27" height="28" fill="white"/>
</clipPath>
</defs>
</svg>
