<svg width="28" height="28" viewBox="0 0 28 28" fill="none" xmlns="http://www.w3.org/2000/svg">
<g clip-path="url(#clip0_91_2545)">
<path d="M28 14C28 21.7321 21.7321 28 14 28C6.26791 28 0 21.7321 0 14C0 6.26791 6.26791 0 14 0C21.7321 0 28 6.26791 28 14Z" fill="#4A7AFF"/>
<path d="M14.6147 27.9857C22.0616 27.6642 28.0003 21.5259 28.0003 14C28.0003 13.9455 27.9988 13.8913 27.9982 13.8368L18.2803 4.11865L7.88965 14.9792L13.6628 20.7524L11.0009 24.3718L14.6147 27.9857Z" fill="#0053BF"/>
<path d="M18.2795 4.11867V7.28883C18.2795 7.28883 14.6398 6.76054 14.6398 9.10869V11.4568H17.9272L17.5164 15.0378H14.6398V24.3718H11.0001V15.0378L7.88867 14.9791V11.4568H10.9413V8.75642C10.9413 8.75642 10.7399 4.73924 14.6985 4.00139C16.3424 3.69484 18.2795 4.11867 18.2795 4.11867Z" fill="white"/>
<path d="M18.2798 7.28883V4.11867C18.2798 4.11867 16.3427 3.69484 14.6989 4.00139C14.4421 4.04924 14.2033 4.11119 13.9805 4.18446V24.3718H14.6401V15.0378H17.5166L17.9276 11.4568H14.6401C14.6401 11.4568 14.6401 11.4568 14.6401 9.10869C14.6401 6.76054 18.2798 7.28883 18.2798 7.28883Z" fill="#DCE1EB"/>
</g>
<defs>
<clipPath id="clip0_91_2545">
<rect width="28" height="28" fill="white"/>
</clipPath>
</defs>
</svg>
