<svg width="28" height="28" viewBox="0 0 28 28" fill="none" xmlns="http://www.w3.org/2000/svg">
<rect width="28" height="28" fill="#C4C4C4"/>
<g id="Chi ti&#225;&#186;&#191;t s&#225;&#186;&#163;n ph&#225;&#186;&#169;m" clip-path="url(#clip0_0_1)">
<rect width="1440" height="3845" transform="translate(-852 -1122)" fill="white"/>
<g id="Group 37077">
<g id="Group 37076">
<g id="twitter 1" clip-path="url(#clip1_0_1)">
<path id="Vector" d="M14 28C21.732 28 28 21.732 28 14C28 6.26801 21.732 0 14 0C6.26801 0 0 6.26801 0 14C0 21.732 6.26801 28 14 28Z" fill="#65A2D9"/>
<path id="Vector_2" d="M21.4932 7.61938C20.0329 8.88644 18.5809 9.99692 17.3942 11.5488C14.4749 15.0691 10.9075 20.0636 6.05273 19.3191L14.7267 27.9814C22.0798 27.6055 27.9336 21.556 27.9986 14.1249L21.4932 7.61938Z" fill="#3A7CA5"/>
<path id="Vector_3" d="M21.7586 8.88513C21.4024 9.04312 21.0328 9.1677 20.6534 9.25782C21.0715 8.86073 21.3857 8.3639 21.5629 7.80948C21.6136 7.65127 21.4416 7.51427 21.2987 7.59904C20.771 7.91212 20.2025 8.14679 19.6092 8.29696C19.5748 8.30571 19.5394 8.31009 19.5037 8.31009C19.3955 8.31009 19.2906 8.27 19.2078 8.19716C18.5766 7.64077 17.7646 7.33435 16.9216 7.33435C16.5567 7.33435 16.1885 7.39123 15.8269 7.50339C14.7065 7.85082 13.842 8.77509 13.5707 9.91527C13.469 10.3428 13.4415 10.771 13.4889 11.1875C13.4942 11.2354 13.4717 11.2688 13.4578 11.2844C13.4331 11.3119 13.3985 11.3277 13.3623 11.3277C13.3584 11.3277 13.3541 11.3275 13.3501 11.3271C10.8976 11.0992 8.68595 9.91774 7.12287 8.00012C7.0433 7.90228 6.89028 7.91431 6.82674 8.0232C6.5207 8.54852 6.35894 9.14916 6.35894 9.7604C6.35894 10.697 6.73541 11.5799 7.38909 12.2235C7.11417 12.1582 6.84806 12.0556 6.60082 11.9182C6.48117 11.8518 6.33411 11.9373 6.33242 12.0741C6.31546 13.4656 7.1302 14.7039 8.35066 15.2614C8.32605 15.262 8.30144 15.2622 8.27683 15.2622C8.0834 15.2622 7.8874 15.2437 7.69468 15.2067C7.55999 15.1811 7.44684 15.3088 7.48862 15.4393C7.88488 16.6762 8.9497 17.5878 10.2241 17.7947C9.16654 18.5047 7.93476 18.8791 6.65294 18.8791L6.25339 18.8789C6.13007 18.8789 6.02589 18.9593 5.99472 19.0786C5.96382 19.1959 6.02064 19.3199 6.12575 19.381C7.57016 20.2216 9.21784 20.6659 10.8911 20.6659C12.3559 20.6659 13.726 20.3753 14.9635 19.8019C16.098 19.2764 17.1004 18.5252 17.9432 17.5692C18.7283 16.6785 19.3421 15.6505 19.7678 14.5133C20.1735 13.4296 20.388 12.2729 20.388 11.1689V11.1162C20.388 10.939 20.4681 10.7722 20.608 10.6585C21.1388 10.2274 21.6012 9.72015 21.9819 9.15063C22.0825 9.00035 21.9239 8.81179 21.7586 8.88513Z" fill="white"/>
<path id="Vector_4" d="M21.7589 8.88512C21.4026 9.04311 21.0331 9.16769 20.6538 9.25782C21.0718 8.86073 21.386 8.3639 21.5633 7.80948C21.614 7.65126 21.442 7.51427 21.2991 7.59904C20.7713 7.91212 20.2029 8.14679 19.6095 8.29696C19.5752 8.30571 19.5398 8.31008 19.5041 8.31008C19.3958 8.31008 19.291 8.27 19.2081 8.19715C18.5769 7.64076 17.7649 7.33435 16.9219 7.33435C16.5571 7.33435 16.1888 7.39123 15.8273 7.50339C15.0441 7.74626 14.3867 8.27164 13.9688 8.95512V20.1921C14.309 20.0812 14.641 19.9513 14.964 19.8017C16.0984 19.2762 17.1009 18.525 17.9437 17.569C18.7288 16.6783 19.3426 15.6503 19.7683 14.5131C20.174 13.4294 20.3885 12.2727 20.3885 11.1688V11.116C20.3885 10.9388 20.4686 10.772 20.6085 10.6583C21.1393 10.2273 21.6016 9.71998 21.9824 9.15047C22.0828 9.00035 21.9243 8.81179 21.7589 8.88512Z" fill="#D1D1D1"/>
</g>
</g>
</g>
</g>
<defs>
<clipPath id="clip0_0_1">
<rect width="1440" height="3845" fill="white" transform="translate(-852 -1122)"/>
</clipPath>
<clipPath id="clip1_0_1">
<rect width="28" height="28" fill="white"/>
</clipPath>
</defs>
</svg>
