<svg width="68" height="68" viewBox="0 0 68 68" fill="none" xmlns="http://www.w3.org/2000/svg">
<rect x="0.5" y="0.5" width="67" height="67" fill="white" stroke="#007740"/>
<path d="M40.1158 47.4851V45.0263H42.582V47.4912L40.1158 47.4851ZM3.37189 54.8273V57.2775H5.82214V54.8273H3.37189ZM20.5236 27.8745H18.0734V30.3248H20.5236V27.8745ZM42.582 64.6283H45.0322V62.178H42.582V64.6283ZM15.6231 64.6283H20.5236V62.178H15.6231V64.6283ZM10.7226 59.7278V52.377H8.27238V49.9268H5.82214V54.8273H8.27238V57.2775H5.82214V62.178H3.37189V64.6283H13.1729V62.178H15.6231V59.7278H10.7226ZM47.4764 40.1258H54.8271V37.6755H47.4764V40.1258ZM3.37189 35.2253H5.82214V32.775H3.37189V35.2253ZM32.7675 47.4851V49.9354H35.2178V47.4851H32.7675ZM32.7675 5.82109V3.37207H22.9739V5.82232H27.8744V8.27257H30.3246V5.82232L32.7675 5.82109ZM47.4764 25.4243H49.9266V22.9741H45.0261V25.4243H42.5759V27.8745H47.4764V25.4243ZM25.4241 25.4243V27.8745H30.3246V25.4243H25.4241ZM45.0371 20.5238V18.0736H42.5869V20.5238H45.0371ZM3.37189 47.4851H5.82214V42.576H3.37189V47.4851ZM47.4764 45.0263H54.8271V42.576H47.4764V45.0263ZM35.2165 18.0821H32.7663V20.5324H35.2165V18.0821ZM8.27238 45.0263V47.4912H10.7226V45.0263H8.27238ZM45.0261 54.8273V52.377H47.2313V49.9268H45.0261V47.4765H42.5759V49.9268H44.7811V52.377H42.5759V49.9268H40.1158V47.4765H37.6656V49.9268H35.2153V52.377H40.1158V54.8273H35.2153V62.178H32.7651V64.6283H40.1158V62.178H37.6656V57.2775H40.1158V62.178H42.582V54.8273H45.0261ZM27.8744 59.7278V57.2775H30.3246V52.377H27.8744V54.8273H25.4241V57.2775H22.9739V59.7278H20.5236V62.178H25.4241V59.7278H27.8744ZM45.0261 62.178H47.4764V59.7278H45.0261V62.178ZM62.1778 49.9329V47.4827H64.6281V64.6283H49.9266V59.7278H47.4764V57.2775H49.9266V54.8273H47.4764V52.377H49.9266V49.9268H47.4764V47.4765H59.7276V49.9268L62.1778 49.9329ZM62.1778 52.3832H52.3768V62.1841H62.1778V52.3832ZM59.7276 54.8334H54.8271V59.7339H59.7276V54.8334ZM27.8744 59.7278V62.178H25.4241V64.6283H30.3246V62.178H32.7749V59.7278H27.8744ZM8.27238 30.3248V27.8745H5.82214V25.4243H8.27238V22.9741H3.37189V30.3248H5.82214V32.775H10.7226V30.3248H8.27238ZM8.27238 37.6755H5.82214V42.576H10.7226V40.1258H8.27238V37.6755ZM18.0734 49.9366H20.5236V47.4863H18.0734V49.9366ZM52.3768 22.9802H54.8271V20.5299H52.3768V22.9802ZM54.8271 13.1792H59.7276V8.27257H54.8271V13.1792ZM54.8271 42.576H57.2773V45.0263H59.7276V47.4912H62.1778V45.0263H64.6281V42.576H59.7276V40.1258H54.8271V42.576ZM20.5236 35.2253V32.775H18.0734V35.2253H20.5236ZM62.1778 25.4243V22.9741H59.7276V20.5238H62.1778V18.0736H49.9266V10.7228H47.4764V8.27257H49.9266V5.82232H47.4764V3.37207H64.6281V25.4243H62.1778ZM62.1778 15.6233V5.82232H52.3768V15.6343L62.1778 15.6233ZM59.7276 32.775V35.2253H54.8271V37.6755H59.7276V40.1258H62.1778V32.775H64.6281V27.8745H62.1778V30.3248H57.2773V32.775H59.7276ZM52.3768 30.3248H49.9266V32.775H52.3768V35.2253H54.8271V30.3248H57.2773V27.8745H52.3768V30.3248ZM57.2773 27.8745H59.7276V22.9741H57.2773V27.8745ZM13.1729 27.8745V25.4243H15.6231V23.0231H18.0734V25.4243H20.5236V27.8745H22.9739V22.9741H32.7749V20.5238H30.3246V18.0736H32.7749V15.6233H30.3246V13.1731H35.2251V8.27257H30.3246V10.7228H25.4241V13.1841H27.8744V15.6343H25.4241V18.0846H27.8744V20.5348H25.4241V18.0846H22.9739V20.5348H20.5236V22.9851H18.0734V20.5838H15.6231V22.9851H10.7226V25.4353H8.27238V27.8856L13.1729 27.8745ZM42.5844 35.2253H45.0347V37.6755H47.4849V35.2253H49.9352V32.775H42.5844V35.2253ZM49.9352 30.3248V27.8745H47.4764V30.3248H49.9352ZM37.6717 32.775V35.2253H40.1219V32.775H37.6717ZM42.5869 30.3248V27.8745H40.1158V30.3248H42.5869ZM20.5236 37.6755H18.0734V40.1258H20.5236V37.6755ZM27.8744 35.2253V32.775H25.4241V27.8745H22.9739V30.3248H20.5236V32.775H22.9739V37.6755H25.4241V35.2253H27.8744ZM18.0734 35.2253H15.6231V37.6755H18.0734V35.2253ZM30.3246 35.2253H32.7749V32.775H30.3246V35.2253ZM18.0734 18.0821V20.5324H20.5236V18.0821H18.0734ZM25.4241 10.7228V8.27257H20.5236V10.7228H25.4241ZM40.1256 18.0858H37.6754V20.5361H35.2251V22.9863H32.7749V27.8868H30.3246V30.337H35.2251V25.4243H37.6754V27.8745H40.1256V22.9741H42.5918V20.5238H40.1158L40.1256 18.0858ZM18.0734 8.27257V18.0846H5.82214V20.5348H3.37189V3.37207H18.0734V5.82232H20.5236V8.27257H18.0734ZM15.6231 5.82232H5.82214V15.6343H15.6231V5.82232ZM13.1729 8.27257H8.27238V13.1841H13.1729V8.27257ZM20.5236 15.6356H25.4241V13.1853H20.5236V15.6356ZM42.582 10.7228V13.1841H37.6668V15.6343H40.117V18.0846H42.5832V15.6343H45.0335V13.1841H47.4837V10.7228H42.582ZM37.6668 5.82232H40.117V8.27257H37.6668V10.7228H42.582V8.27257H47.4825V5.82232H45.0261V3.37207H35.2165V8.27257H37.6668V5.82232ZM20.5236 59.7278H15.6231V57.2775H13.1729V49.9268H10.7226V47.4765H13.1729V40.1258H10.7226V37.6755H8.27238V35.2253H10.7226V32.775H13.1729V27.8745H15.6231V30.3248H18.0734V32.775H15.6231V35.2253H13.1729V37.6755H15.6231V40.1258H18.0734V42.576H22.9739V40.1258H25.4241V42.576H27.8744V45.0263H30.3246V42.576H27.8744V40.1258H25.4241V37.6755H35.2251V40.1258H40.1256V35.2253H42.5918V37.6755H45.042V42.576H40.1158V45.0263H37.6656V42.576H32.7651V47.49H30.3148V49.9403H27.8744V47.49H25.4241V49.9403H27.8744V52.3905H25.4241V54.8408H20.5236V59.7278ZM15.6231 52.377H22.9739V45.0263H15.6231V52.377Z" fill="#007740"/>
</svg>
